<svg width="123" height="29" viewBox="0 0 123 29" fill="none" xmlns="http://www.w3.org/2000/svg">
<path d="M19 19.5H12C10.897 19.5 10 20.397 10 21.5C10 22.603 10.897 23.5 12 23.5H19C20.103 23.5 21 22.603 21 21.5C21 20.397 20.103 19.5 19 19.5ZM19 12.5H12C10.897 12.5 10 13.397 10 14.5C10 15.603 10.897 16.5 12 16.5H19C20.103 16.5 21 15.603 21 14.5C21 13.397 20.103 12.5 19 12.5ZM19 5.5H12C10.897 5.5 10 6.397 10 7.5C10 8.603 10.897 9.5 12 9.5H19C20.103 9.5 21 8.603 21 7.5C21 6.397 20.103 5.5 19 5.5Z" fill="#7E22CE"/>
<path d="M5 24C6.38071 24 7.5 22.8807 7.5 21.5C7.5 20.1193 6.38071 19 5 19C3.61929 19 2.5 20.1193 2.5 21.5C2.5 22.8807 3.61929 24 5 24Z" fill="#7E22CE"/>
<path d="M5 17C6.38071 17 7.5 15.8807 7.5 14.5C7.5 13.1193 6.38071 12 5 12C3.61929 12 2.5 13.1193 2.5 14.5C2.5 15.8807 3.61929 17 5 17Z" fill="#7E22CE"/>
<path d="M5 10C6.38071 10 7.5 8.88071 7.5 7.5C7.5 6.11929 6.38071 5 5 5C3.61929 5 2.5 6.11929 2.5 7.5C2.5 8.88071 3.61929 10 5 10Z" fill="#7E22CE"/>
<path d="M36.7045 23H30.517V5.54545H36.7557C38.5114 5.54545 40.0227 5.89489 41.2898 6.59375C42.5568 7.28693 43.5313 8.28409 44.2131 9.58523C44.9006 10.8864 45.2443 12.4432 45.2443 14.2557C45.2443 16.0739 44.9006 17.6364 44.2131 18.9432C43.5313 20.25 42.5511 21.2528 41.2727 21.9517C40 22.6506 38.4773 23 36.7045 23ZM34.2074 19.8381H36.5511C37.642 19.8381 38.5597 19.6449 39.304 19.2585C40.054 18.8665 40.6165 18.2614 40.9915 17.4432C41.3722 16.6193 41.5625 15.5568 41.5625 14.2557C41.5625 12.9659 41.3722 11.9119 40.9915 11.0938C40.6165 10.2756 40.0568 9.6733 39.3125 9.28693C38.5682 8.90057 37.6506 8.70739 36.5597 8.70739H34.2074V19.8381Z" fill="#7E22CE"/>
<path d="M50.978 23V5.54545H57.8643C59.1825 5.54545 60.3075 5.78125 61.2393 6.25284C62.1768 6.71875 62.8899 7.38068 63.3786 8.23864C63.8729 9.09091 64.12 10.0937 64.12 11.2472C64.12 12.4062 63.87 13.4034 63.37 14.2386C62.87 15.0682 62.1456 15.7045 61.1967 16.1477C60.2536 16.5909 59.1115 16.8125 57.7706 16.8125H53.1598V13.8466H57.174C57.8786 13.8466 58.4638 13.75 58.9297 13.5568C59.3956 13.3636 59.7422 13.0739 59.9695 12.6875C60.2024 12.3011 60.3189 11.821 60.3189 11.2472C60.3189 10.6676 60.2024 10.179 59.9695 9.78125C59.7422 9.38352 59.3928 9.08239 58.9212 8.87784C58.4553 8.66761 57.8672 8.5625 57.157 8.5625H54.6683V23H50.978ZM60.4041 15.0568L64.7422 23H60.6683L56.424 15.0568H60.4041ZM72.7365 23H68.782L74.8075 5.54545H79.5632L85.5803 23H81.6257L77.2536 9.53409H77.1172L72.7365 23ZM72.4893 16.1392H81.8303V19.0199H72.4893V16.1392ZM90.6811 23V5.54545H102.238V8.58807H94.3714V12.7472H101.471V15.7898H94.3714V23H90.6811ZM107.055 8.58807V5.54545H121.391V8.58807H116.047V23H112.399V8.58807H107.055Z" fill="white"/>
</svg>
